<svg width="35px" height="35px" viewBox="0 0 35 35" version="1.1" xmlns="http://www.w3.org/2000/svg" xmlns:xlink="http://www.w3.org/1999/xlink">
    <!-- Generator: Sketch 48.2 (47327) - http://www.bohemiancoding.com/sketch -->
    <desc>Created with Sketch.</desc>
    <defs></defs>
    <g id="Home" stroke="none" stroke-width="1" fill="none" fill-rule="evenodd" opacity="1">
        <g id="Desktop-HD" transform="translate(-1258.000000, -952.000000)" fill="#323232" fill-rule="nonzero">
            <g id="Footer" transform="translate(0.000000, 932.000000)">
                <g id="instagram-social-network-logo-of-photo-camera" transform="translate(1258.000000, 20.000000)">
                    <path d="M4.46464286,0 L30.3192857,0 C32.7746429,0 34.7835714,1.81785714 34.7835714,4.46428571 L34.7835714,30.3196429 C34.7835714,32.9660714 32.7746429,34.7839286 30.3192857,34.7839286 L4.46464286,34.7839286 C2.00857143,34.7839286 0,32.9660714 0,30.3196429 L0,4.46428571 C0,1.81785714 2.00857143,0 4.46464286,0 Z M25.3385714,3.86464286 C24.4771429,3.86464286 23.7732143,4.56892857 23.7732143,5.43071429 L23.7732143,9.17892857 C23.7732143,10.0403571 24.4771429,10.745 25.3385714,10.745 L29.27,10.745 C30.1314286,10.745 30.8360714,10.0403571 30.8360714,9.17892857 L30.8360714,5.43071429 C30.8360714,4.56892857 30.1314286,3.86464286 29.27,3.86464286 L25.3385714,3.86464286 Z M30.8525,14.71 L27.7910714,14.71 C28.0807143,15.6557143 28.2375,16.6575 28.2375,17.6939286 C28.2375,23.4796429 23.3960714,28.1696429 17.425,28.1696429 C11.4542857,28.1696429 6.61357143,23.4796429 6.61357143,17.6939286 C6.61357143,16.6567857 6.77,15.6553571 7.06,14.71 L3.86535714,14.71 L3.86535714,29.4032143 C3.86535714,30.1635714 4.4875,30.7860714 5.24821429,30.7860714 L29.4703571,30.7860714 C30.2310714,30.7860714 30.8532143,30.1639286 30.8532143,29.4032143 L30.8532143,14.71 L30.8525,14.71 Z M17.4246429,10.5475 C13.5667857,10.5475 10.4389286,13.5778571 10.4389286,17.3164286 C10.4389286,21.055 13.5667857,24.0853571 17.4246429,24.0853571 C21.2828571,24.0853571 24.4110714,21.055 24.4110714,17.3164286 C24.4110714,13.5778571 21.2832143,10.5475 17.4246429,10.5475 Z" id="Shape"></path>
                </g>
            </g>
        </g>
    </g>
</svg>
